# xmcd
#
# Track frame offsets: 
#        150
#        14292
#        27266
#        38554
#        53217
#        88809
#        101108
#        112855
#        128120
#        129017
#        131418
#        136032
#        142894
#        147484
#        154025
#        158593
#        169468
#        179672
#        191107
#        203872
#
# Disc length: 2857 seconds
#
# Revision: 0
# Processed by: cddbd v1.5.2PL0 Copyright (c) Steve Scherf et al.
# Submitted via: ExactAudioCopy v0.99pb5
#
DISCID=120b2714
DTITLE=Jan and Dean  - Collector's Series - Disc 5-Liberty Years 1964-
DTITLE=65
DYEAR=1900
DGENRE=
TTITLE0=Surf City (Command Performance track)
TTITLE1=Rock and Roll Music (Command Performance track)
TTITLE2=I Should Have Known Better (Command Performance track)
TTITLE3=Louie, Louie (Command Performance track)
TTITLE4=Dick Biondi's Radio Show Promos
TTITLE5=Music City (live)
TTITLE6=Freeway Flyer (mono single)
TTITLE7=You Really Know How to Hurt a Guy (backing track)
TTITLE8=Things Go Better with Coke (Coke Jingle, 10 sec)
TTITLE9=Things Go Better with Coke (Coke Jingle, 30 sec)
TTITLE10=Things Go Better with Coke (Coke Jingle, 60 sec)
TTITLE11=Things Go Better with Coke (Coke Jingle, 90 sec)
TTITLE12=Everybody's Go Go Wild (Alt. Coke Jingle, 60 sec)
TTITLE13=Everybody's Go Go Wild (Alt. Coke Jingle, 90 sec)
TTITLE14=Things Go Better with Coke (Coke Jingle, from cd)
TTITLE15=Do You Believe in Magic (track only)
TTITLE16=Everyone's Gone to the Moon (track only)
TTITLE17=Let Me Be (track only)
TTITLE18=The Closer You Are (track only)
TTITLE19=Travlin' Man (track only)
EXTD=
EXTT0=
EXTT1=
EXTT2=
EXTT3=
EXTT4=
EXTT5=
EXTT6=
EXTT7=
EXTT8=
EXTT9=
EXTT10=
EXTT11=
EXTT12=
EXTT13=
EXTT14=
EXTT15=
EXTT16=
EXTT17=
EXTT18=
EXTT19=
PLAYORDER=
